# xmcd
#
# Track frame offsets:
#	150
#	14580
#	28880
#	43431
#	57841
#	73213
#	89179
#	106714
#	126704
#	145049
#	162194
#	177895
#	193727
#	206802
#	225904
#	245076
#	264081
#	279650
#	297246
#	316968
#	331248
#	347080
#
# Disc length: 4782 seconds
#
# Revision: 2
# Processed by: cddbd v1.5.2PL0 Copyright (c) Steve Scherf et al.
# Submitted via: audiograbber 1.83.01
#
DISCID=5a12ac16
DTITLE=Various Artist - CDX 535
DYEAR=2011
DGENRE=Country
TTITLE0=Love and Theft - Angel Eyes
TTITLE1=Lauren Alaina - Georgia Peaches
TTITLE2=Rodney Atkins - He's Mine
TTITLE3=Stealing Angels - Little Blue Sky 
TTITLE4=Trace Adkins - Million Dollar View
TTITLE5=Wade Bowen - Saturday Night
TTITLE6=Scotty McCreery - The Trouble With Girls
TTITLE7=Sawyer Brown - Travelin' Band
TTITLE8=Julie Ingram - Thank God (Mom and Dad)
TTITLE9=Vince Vance and the Valiants - All I Want For Christmas Is You
TTITLE10=Vince Vance and the Valiants - Christmas Just Ain't Christmas Without Yo
TTITLE10=u
TTITLE11=Andy Gibson - The Christmas Song
TTITLE12=Andy Gibson - Feliz Navidad
TTITLE13=Sawyer Brown - Hallelujah He Is Born
TTITLE14=Sawyer Brown - Where Christmas Goes
TTITLE15=Kacey Jones - I'm Down To My Christmas Underwear
TTITLE16=Kacey Jones - Christmas In Rehab
TTITLE17=Elizabeth Montgomery - Merry Christmas Baby
TTITLE18=Elizabeth Montgomery - Fill Your Heart With Christmas
TTITLE19=Sandy Kastel - Santa Baby
TTITLE20=Marlee Scott - Someday At Christmas
TTITLE21=T. Graham Brown - It Ain't Christmas
EXTD=
EXTT0=
EXTT1=
EXTT2=
EXTT3=
EXTT4=
EXTT5=
EXTT6=
EXTT7=
EXTT8=
EXTT9=
EXTT10=
EXTT11=
EXTT12=
EXTT13=
EXTT14=
EXTT15=
EXTT16=
EXTT17=
EXTT18=
EXTT19=
EXTT20=
EXTT21=
PLAYORDER=
